<svg xmlns="http://www.w3.org/2000/svg" version="1.1" xmlns:xlink="http://www.w3.org/1999/xlink" xmlns:svgjs="http://svgjs.dev/svgjs" width="1000" height="1000" viewBox="0 0 1000 1000"><rect width="1000" height="1000" fill="#ffffff"></rect><g transform="matrix(0.7,0,0,0.7,149.57575757575756,463.82169851031074)"><svg viewBox="0 0 396 41" data-background-color="#ffffff" preserveAspectRatio="xMidYMid meet" height="103" width="1000" xmlns="http://www.w3.org/2000/svg" xmlns:xlink="http://www.w3.org/1999/xlink"><g id="tight-bounds" transform="matrix(1,0,0,1,0.2400000000000091,0.07295923824213446)"><svg viewBox="0 0 395.52 40.854081523515745" height="40.854081523515745" width="395.52"><g><svg viewBox="0 0 471.1789760661186 48.66905415749364" height="40.854081523515745" width="395.52"><g><rect width="4.367189582474297" height="48.66905415749364" x="59.85935302166977" y="0" fill="#111111" opacity="1" stroke-width="0" stroke="transparent" fill-opacity="1" class="rect-o-0" data-fill-palette-color="primary" rx="1%" id="o-0" data-palette-color="#111111"></rect></g><g transform="matrix(1,0,0,1,75.65897606611867,0.12106729889923429)"><svg viewBox="0 0 395.5199999999999 48.42691955969517" height="48.42691955969517" width="395.5199999999999"><g id="textblocktransform"><svg viewBox="0 0 395.5199999999999 48.42691955969517" height="48.42691955969517" width="395.5199999999999" id="textblock"><g><svg viewBox="0 0 395.5199999999999 48.42691955969517" height="48.42691955969517" width="395.5199999999999"><g transform="matrix(1,0,0,1,0,0)"><svg width="395.5199999999999" viewBox="4 -35.45000076293945 295.2300109863281 36.150001525878906" height="48.42691955969517" data-palette-color="#111111"><path d="M4 0L4-34.65 11.8-34.65 11.8 0 4 0ZM49.6 0L43.05 0Q39.7-5.95 35.8-11.75 31.9-17.55 27.5-22.7L27.5-22.7 27.5 0 19.8 0 19.8-34.65 26.15-34.65Q27.8-33 29.8-30.6 31.8-28.2 33.87-25.48 35.95-22.75 38-19.83 40.05-16.9 41.85-14.2L41.85-14.2 41.85-34.65 49.6-34.65 49.6 0ZM64.15-17.35L64.15-17.35Q64.15-14.8 64.77-12.75 65.4-10.7 66.57-9.22 67.75-7.75 69.45-6.95 71.15-6.15 73.34-6.15L73.34-6.15Q75.5-6.15 77.22-6.95 78.95-7.75 80.12-9.22 81.3-10.7 81.92-12.75 82.55-14.8 82.55-17.35L82.55-17.35Q82.55-19.9 81.92-21.98 81.3-24.05 80.12-25.53 78.95-27 77.22-27.8 75.5-28.6 73.34-28.6L73.34-28.6Q71.15-28.6 69.45-27.78 67.75-26.95 66.57-25.48 65.4-24 64.77-21.93 64.15-19.85 64.15-17.35ZM90.59-17.35L90.59-17.35Q90.59-12.9 89.27-9.53 87.95-6.15 85.65-3.88 83.34-1.6 80.17-0.45 77 0.7 73.34 0.7L73.34 0.7Q69.8 0.7 66.65-0.45 63.5-1.6 61.15-3.88 58.8-6.15 57.45-9.53 56.1-12.9 56.1-17.35L56.1-17.35Q56.1-21.8 57.5-25.18 58.9-28.55 61.27-30.85 63.65-33.15 66.77-34.3 69.9-35.45 73.34-35.45L73.34-35.45Q76.9-35.45 80.05-34.3 83.2-33.15 85.55-30.85 87.9-28.55 89.25-25.18 90.59-21.8 90.59-17.35ZM92.94-34.65L121.64-34.65 121.64-28 111.19-28 111.19 0 103.39 0 103.39-28 92.94-28 92.94-34.65ZM151.19 0L126.64 0 126.64-34.65 150.04-34.65 150.04-28.1 134.44-28.1 134.44-21.3 148.29-21.3 148.29-14.9 134.44-14.9 134.44-6.55 151.19-6.55 151.19 0ZM168.49 0.45L168.49 0.45Q165.64 0.45 162.81 0.28 159.99 0.1 156.94-0.55L156.94-0.55 156.94-34.15Q159.34-34.6 162.19-34.83 165.04-35.05 167.49-35.05L167.49-35.05Q170.79-35.05 173.56-34.58 176.34-34.1 178.34-32.95 180.34-31.8 181.46-29.93 182.59-28.05 182.59-25.3L182.59-25.3Q182.59-21.15 178.59-18.75L178.59-18.75Q181.89-17.5 183.09-15.35 184.29-13.2 184.29-10.5L184.29-10.5Q184.29-5.05 180.31-2.3 176.34 0.45 168.49 0.45ZM169.44-15.1L164.54-15.1 164.54-6.15Q165.39-6.05 166.39-6 167.39-5.95 168.59-5.95L168.59-5.95Q172.09-5.95 174.24-6.95 176.39-7.95 176.39-10.65L176.39-10.65Q176.39-13.05 174.59-14.08 172.79-15.1 169.44-15.1L169.44-15.1ZM164.54-28.6L164.54-21.05 168.34-21.05Q171.94-21.05 173.49-21.98 175.04-22.9 175.04-24.95L175.04-24.95Q175.04-27.05 173.44-27.9 171.84-28.75 168.74-28.75L168.74-28.75Q167.74-28.75 166.59-28.73 165.44-28.7 164.54-28.6L164.54-28.6ZM197.09-17.35L197.09-17.35Q197.09-14.8 197.71-12.75 198.34-10.7 199.51-9.22 200.69-7.75 202.38-6.95 204.09-6.15 206.28-6.15L206.28-6.15Q208.44-6.15 210.16-6.95 211.88-7.75 213.06-9.22 214.24-10.7 214.86-12.75 215.49-14.8 215.49-17.35L215.49-17.35Q215.49-19.9 214.86-21.98 214.24-24.05 213.06-25.53 211.88-27 210.16-27.8 208.44-28.6 206.28-28.6L206.28-28.6Q204.09-28.6 202.38-27.78 200.69-26.95 199.51-25.48 198.34-24 197.71-21.93 197.09-19.85 197.09-17.35ZM223.53-17.35L223.53-17.35Q223.53-12.9 222.21-9.53 220.88-6.15 218.59-3.88 216.28-1.6 213.11-0.45 209.94 0.7 206.28 0.7L206.28 0.7Q202.73 0.7 199.59-0.45 196.44-1.6 194.09-3.88 191.73-6.15 190.38-9.53 189.03-12.9 189.03-17.35L189.03-17.35Q189.03-21.8 190.44-25.18 191.84-28.55 194.21-30.85 196.59-33.15 199.71-34.3 202.84-35.45 206.28-35.45L206.28-35.45Q209.84-35.45 212.99-34.3 216.13-33.15 218.49-30.85 220.84-28.55 222.19-25.18 223.53-21.8 223.53-17.35ZM236.58-17.35L236.58-17.35Q236.58-14.8 237.21-12.75 237.83-10.7 239.01-9.22 240.18-7.75 241.88-6.95 243.58-6.15 245.78-6.15L245.78-6.15Q247.93-6.15 249.66-6.95 251.38-7.75 252.56-9.22 253.73-10.7 254.36-12.75 254.98-14.8 254.98-17.35L254.98-17.35Q254.98-19.9 254.36-21.98 253.73-24.05 252.56-25.53 251.38-27 249.66-27.8 247.93-28.6 245.78-28.6L245.78-28.6Q243.58-28.6 241.88-27.78 240.18-26.95 239.01-25.48 237.83-24 237.21-21.93 236.58-19.85 236.58-17.35ZM263.03-17.35L263.03-17.35Q263.03-12.9 261.71-9.53 260.38-6.15 258.08-3.88 255.78-1.6 252.61-0.45 249.43 0.7 245.78 0.7L245.78 0.7Q242.23 0.7 239.08-0.45 235.93-1.6 233.58-3.88 231.23-6.15 229.88-9.53 228.53-12.9 228.53-17.35L228.53-17.35Q228.53-21.8 229.93-25.18 231.33-28.55 233.71-30.85 236.08-33.15 239.21-34.3 242.33-35.45 245.78-35.45L245.78-35.45Q249.33-35.45 252.48-34.3 255.63-33.15 257.98-30.85 260.33-28.55 261.68-25.18 263.03-21.8 263.03-17.35ZM299.23 0L289.98 0Q288.93-1.7 287.51-3.68 286.08-5.65 284.41-7.63 282.73-9.6 280.93-11.43 279.13-13.25 277.33-14.65L277.33-14.65 277.33 0 269.53 0 269.53-34.65 277.33-34.65 277.33-21.55Q280.38-24.75 283.46-28.23 286.53-31.7 289.18-34.65L289.18-34.65 298.43-34.65Q294.88-30.45 291.31-26.55 287.73-22.65 283.78-18.7L283.78-18.7Q287.93-15.25 291.81-10.5 295.68-5.75 299.23 0L299.23 0Z" opacity="1" transform="matrix(1,0,0,1,0,0)" fill="#111111" class="wordmark-text-0" data-fill-palette-color="primary" id="text-0"></path></svg></g></svg></g></svg></g></svg></g><g transform="matrix(1,0,0,1,0,0.12106729889923429)"><svg viewBox="0 0 48.42691955969517 48.42691955969517" height="48.42691955969517" width="48.42691955969517"><g><svg xmlns="http://www.w3.org/2000/svg" xmlns:xlink="http://www.w3.org/1999/xlink" version="1.1" x="0" y="0" viewBox="0 0 100 100" enable-background="new 0 0 100 100" xml:space="preserve" height="48.42691955969517" width="48.42691955969517" class="icon-icon-0" data-fill-palette-color="accent" id="icon-0"><path d="M70 92.5h-5l-6.759-6.76-0.019-0.018C57.771 85.277 57.152 85 56.467 85H52.5h-8.971c-0.675 0-1.285 0.271-1.734 0.705l-0.059 0.059L35 92.5h-5c-1.381 0-2.5 0.988-2.5 2.206v3.088c0 1.218 1.119 2.206 2.5 2.206h40c1.381 0 2.5-0.988 2.5-2.206v-3.088C72.5 93.488 71.381 92.5 70 92.5z" fill="#111111" data-fill-palette-color="accent"></path><g fill="#111111" data-fill-palette-color="accent"><path fill="none" d="M84.889 66.999c-1.688 0-3.055 1.366-3.055 3.056C81.834 68.367 83.201 67 84.889 66.999c1.688 0.001 3.055 1.368 3.055 3.056C87.943 68.365 86.577 66.999 84.889 66.999z"></path><path fill="none" d="M81.834 70.055c0 1.688 1.367 3.055 3.055 3.055C83.201 73.109 81.834 71.742 81.834 70.055z"></path><path fill="none" d="M84.889 73.109c1.688 0 3.055-1.366 3.055-3.055C87.943 71.742 86.576 73.109 84.889 73.109z"></path><path d="M90 0H10C4.477 0 0 4.477 0 10v60c0 5.521 4.477 10 10 10h80c5.523 0 10-4.479 10-10V10C100 4.477 95.523 0 90 0zM84.889 73.109c-1.688 0-3.055-1.366-3.055-3.055 0-1.689 1.367-3.056 3.055-3.056 1.688 0 3.055 1.366 3.055 3.056C87.943 71.743 86.577 73.109 84.889 73.109zM90 60H10V10h80V60z" fill="#111111" data-fill-palette-color="accent"></path></g></svg></g></svg></g></svg></g><defs></defs></svg><rect width="395.52" height="40.854081523515745" fill="none" stroke="none" visibility="hidden"></rect></g></svg></g></svg>